<svg xmlns="http://www.w3.org/2000/svg" width="580" height="542" fill="none"><path fill="#fff" d="M332.41 15.49h2.58v-4.65h3.42v4.65h3.09v2.55h-3.09v8.28c0 .36.01.67.03.93.04.26.11.48.21.66.12.18.29.32.51.42.22.08.52.12.9.12h.72c.24-.02.48-.06.72-.12v2.64c-.38.04-.75.08-1.11.12-.36.04-.73.06-1.11.06-.9 0-1.63-.08-2.19-.24-.54-.18-.97-.43-1.29-.75-.3-.34-.51-.76-.63-1.26-.1-.5-.16-1.07-.18-1.71v-9.15h-2.58v-2.55zm-5.886-5.91h3.42v3.24h-3.42V9.58zm0 5.91h3.42V31h-3.42V15.49zM322.527 31h-3.36v-2.16h-.06c-.42.78-1.05 1.41-1.89 1.89-.82.46-1.66.69-2.52.69-2.04 0-3.52-.5-4.44-1.5-.9-1.02-1.35-2.55-1.35-4.59v-9.84h3.42V25c0 1.36.26 2.32.78 2.88s1.25.84 2.19.84c.72 0 1.32-.11 1.8-.33.48-.22.87-.51 1.17-.87.3-.38.51-.83.63-1.35.14-.52.21-1.08.21-1.68v-9h3.42V31zM298.06 15.49h3.21v3h.06c.1-.42.29-.83.57-1.23.3-.4.65-.76 1.05-1.08.42-.34.88-.61 1.38-.81.5-.2 1.01-.3 1.53-.3.4 0 .67.01.81.03l.48.06v3.3c-.24-.04-.49-.07-.75-.09-.24-.04-.48-.06-.72-.06-.58 0-1.13.12-1.65.36-.5.22-.94.56-1.32 1.02-.38.44-.68.99-.9 1.65-.22.66-.33 1.42-.33 2.28V31h-3.42V15.49zm-6.5 5.19c-.14-.96-.53-1.68-1.17-2.16-.62-.5-1.41-.75-2.37-.75-.44 0-.91.08-1.41.24-.5.14-.96.42-1.38.84-.42.4-.77.97-1.05 1.71-.28.72-.42 1.67-.42 2.85 0 .64.07 1.28.21 1.92.16.64.4 1.21.72 1.71.34.5.77.91 1.29 1.23.52.3 1.15.45 1.89.45 1 0 1.82-.31 2.46-.93.66-.62 1.07-1.49 1.23-2.61h3.42c-.32 2.02-1.09 3.57-2.31 4.65-1.2 1.06-2.8 1.59-4.8 1.59-1.22 0-2.3-.2-3.24-.6a7.15 7.15 0 0 1-2.34-1.68 7.48 7.48 0 0 1-1.47-2.55c-.32-.98-.48-2.04-.48-3.18 0-1.16.16-2.25.48-3.27.32-1.02.8-1.9 1.44-2.64.64-.76 1.43-1.35 2.37-1.77.96-.44 2.08-.66 3.36-.66.9 0 1.75.12 2.55.36.82.22 1.54.56 2.16 1.02.64.46 1.16 1.04 1.56 1.74.4.7.64 1.53.72 2.49h-3.42zm-16.79 1.2c-.04-.54-.16-1.06-.36-1.56-.18-.5-.44-.93-.78-1.29a3.39 3.39 0 0 0-1.2-.9c-.46-.24-.98-.36-1.56-.36-.6 0-1.15.11-1.65.33-.48.2-.9.49-1.26.87-.34.36-.62.79-.84 1.29-.2.5-.31 1.04-.33 1.62h7.98zm-7.98 2.25c0 .6.08 1.18.24 1.74.18.56.44 1.05.78 1.47.34.42.77.76 1.29 1.02.52.24 1.14.36 1.86.36 1 0 1.8-.21 2.4-.63.62-.44 1.08-1.09 1.38-1.95h3.24c-.18.84-.49 1.59-.93 2.25a6.7 6.7 0 0 1-1.59 1.68c-.62.44-1.32.77-2.1.99-.76.24-1.56.36-2.4.36-1.22 0-2.3-.2-3.24-.6-.94-.4-1.74-.96-2.4-1.68-.64-.72-1.13-1.58-1.47-2.58-.32-1-.48-2.1-.48-3.3 0-1.1.17-2.14.51-3.12.36-1 .86-1.87 1.5-2.61.66-.76 1.45-1.36 2.37-1.8.92-.44 1.96-.66 3.12-.66 1.22 0 2.31.26 3.27.78.98.5 1.79 1.17 2.43 2.01.64.84 1.1 1.81 1.38 2.91.3 1.08.38 2.2.24 3.36h-11.4zm-12.989-8.64h3.21v3h.06c.1-.42.29-.83.57-1.23.3-.4.65-.76 1.05-1.08.42-.34.88-.61 1.38-.81.5-.2 1.01-.3 1.53-.3.4 0 .67.01.81.03l.48.06v3.3c-.24-.04-.49-.07-.75-.09-.24-.04-.48-.06-.72-.06-.58 0-1.13.12-1.65.36-.5.22-.94.56-1.32 1.02-.38.44-.68.99-.9 1.65-.22.66-.33 1.42-.33 2.28V31h-3.42V15.49zm293.086 116.09h3.42v7.95h.06c.42-.7 1.04-1.28 1.86-1.74.84-.48 1.77-.72 2.79-.72 1.7 0 3.04.44 4.02 1.32.98.88 1.47 2.2 1.47 3.96V153h-3.42v-9.75c-.04-1.22-.3-2.1-.78-2.64-.48-.56-1.23-.84-2.25-.84-.58 0-1.1.11-1.56.33-.46.2-.85.49-1.17.87-.32.36-.57.79-.75 1.29-.18.5-.27 1.03-.27 1.59V153h-3.42v-21.42zm-6.5 11.1c-.14-.96-.53-1.68-1.17-2.16-.62-.5-1.41-.75-2.37-.75-.44 0-.91.08-1.41.24-.5.14-.96.42-1.38.84-.42.4-.77.97-1.05 1.71-.28.72-.42 1.67-.42 2.85 0 .64.07 1.28.21 1.92.16.64.4 1.21.72 1.71.34.5.77.91 1.29 1.23.52.3 1.15.45 1.89.45 1 0 1.82-.31 2.46-.93.66-.62 1.07-1.49 1.23-2.61h3.42c-.32 2.02-1.09 3.57-2.31 4.65-1.2 1.06-2.8 1.59-4.8 1.59-1.22 0-2.3-.2-3.24-.6a7.15 7.15 0 0 1-2.34-1.68 7.48 7.48 0 0 1-1.47-2.55c-.32-.98-.48-2.04-.48-3.18 0-1.16.16-2.25.48-3.27.32-1.02.8-1.9 1.44-2.64.64-.76 1.43-1.35 2.37-1.77.96-.44 2.08-.66 3.36-.66.9 0 1.75.12 2.55.36.82.22 1.54.56 2.16 1.02.64.46 1.16 1.04 1.56 1.74.4.7.64 1.53.72 2.49h-3.42zm-20.79-5.19h3.21v3h.06c.1-.42.29-.83.57-1.23.3-.4.65-.76 1.05-1.08.42-.34.88-.61 1.38-.81.5-.2 1.01-.3 1.53-.3.4 0 .67.01.81.03l.48.06v3.3c-.24-.04-.49-.07-.75-.09-.24-.04-.48-.06-.72-.06-.58 0-1.13.12-1.65.36-.5.22-.94.56-1.32 1.02-.38.44-.68.99-.9 1.65-.22.66-.33 1.42-.33 2.28V153h-3.42v-15.51zm-3.98 12.06c0 .42.051.72.151.9.12.18.339.27.659.27h.36c.14 0 .301-.02.481-.06v2.37c-.12.04-.281.08-.481.12-.18.06-.369.11-.569.15a6.227 6.227 0 0 1-1.111.12c-.7 0-1.28-.14-1.74-.42-.46-.28-.759-.77-.899-1.47-.68.66-1.52 1.14-2.52 1.44-.98.3-1.93.45-2.85.45-.7 0-1.371-.1-2.011-.3a5.395 5.395 0 0 1-1.709-.81c-.48-.38-.87-.85-1.17-1.41-.28-.58-.42-1.25-.42-2.01 0-.96.17-1.74.51-2.34.36-.6.819-1.07 1.379-1.41.58-.34 1.221-.58 1.921-.72.72-.16 1.44-.28 2.16-.36.62-.12 1.209-.2 1.769-.24.56-.06 1.05-.15 1.47-.27.44-.12.781-.3 1.021-.54.26-.26.39-.64.39-1.14 0-.44-.11-.8-.33-1.08-.2-.28-.46-.49-.78-.63-.3-.16-.641-.26-1.021-.3-.38-.06-.739-.09-1.079-.09-.96 0-1.75.2-2.37.6-.62.4-.971 1.02-1.051 1.86h-3.419c.06-1 .3-1.83.72-2.49.42-.66.95-1.19 1.59-1.59.66-.4 1.4-.68 2.22-.84.82-.16 1.66-.24 2.52-.24.76 0 1.51.08 2.25.24.74.16 1.4.42 1.98.78.6.36 1.08.83 1.44 1.41.36.56.539 1.25.539 2.07v7.98zm-3.419-4.32c-.52.34-1.161.55-1.921.63-.76.06-1.52.16-2.28.3-.36.06-.709.15-1.049.27-.34.1-.64.25-.9.45-.26.18-.47.43-.63.75-.14.3-.21.67-.21 1.11 0 .38.11.7.33.96.22.26.48.47.78.63.32.14.659.24 1.019.3.38.06.721.09 1.021.09.38 0 .789-.05 1.229-.15.44-.1.851-.27 1.231-.51.4-.24.729-.54.989-.9.26-.38.391-.84.391-1.38v-2.55zm-15.89-1.35c-.04-.54-.16-1.06-.36-1.56-.18-.5-.44-.93-.78-1.29a3.39 3.39 0 0 0-1.2-.9c-.46-.24-.98-.36-1.56-.36-.6 0-1.15.11-1.65.33-.48.2-.9.49-1.26.87-.34.36-.62.79-.84 1.29-.2.5-.31 1.04-.33 1.62h7.98zm-7.98 2.25c0 .6.08 1.18.24 1.74.18.56.44 1.05.78 1.47.34.42.77.76 1.29 1.02.52.24 1.14.36 1.86.36 1 0 1.8-.21 2.4-.63.62-.44 1.08-1.09 1.38-1.95h3.24c-.18.84-.49 1.59-.93 2.25a6.7 6.7 0 0 1-1.59 1.68c-.62.44-1.32.77-2.1.99-.76.24-1.56.36-2.4.36-1.22 0-2.3-.2-3.24-.6-.94-.4-1.74-.96-2.4-1.68-.64-.72-1.13-1.58-1.47-2.58-.32-1-.48-2.1-.48-3.3 0-1.1.17-2.14.51-3.12.36-1 .86-1.87 1.5-2.61.66-.76 1.45-1.36 2.37-1.8.92-.44 1.96-.66 3.12-.66 1.22 0 2.31.26 3.27.78.98.5 1.79 1.17 2.43 2.01.64.84 1.1 1.81 1.38 2.91.3 1.08.38 2.2.24 3.36h-11.4zm-15.947 1.89c.1 1 .48 1.7 1.14 2.1.66.4 1.45.6 2.37.6.32 0 .68-.02 1.08-.06.42-.06.81-.16 1.17-.3.36-.14.65-.34.87-.6.24-.28.35-.64.33-1.08-.02-.44-.18-.8-.48-1.08s-.69-.5-1.17-.66c-.46-.18-.99-.33-1.59-.45-.6-.12-1.21-.25-1.83-.39-.64-.14-1.26-.31-1.86-.51a6.27 6.27 0 0 1-1.59-.81 3.85 3.85 0 0 1-1.11-1.29c-.28-.54-.42-1.2-.42-1.98 0-.84.2-1.54.6-2.1.42-.58.94-1.04 1.56-1.38.64-.36 1.34-.61 2.1-.75.78-.14 1.52-.21 2.22-.21.8 0 1.56.09 2.28.27.74.16 1.4.43 1.98.81.6.38 1.09.88 1.47 1.5.4.6.65 1.33.75 2.19h-3.57c-.16-.82-.54-1.37-1.14-1.65-.58-.28-1.25-.42-2.01-.42-.24 0-.53.02-.87.06-.32.04-.63.12-.93.24-.28.1-.52.26-.72.48-.2.2-.3.47-.3.81 0 .42.14.76.42 1.02.3.26.68.48 1.14.66.48.16 1.02.3 1.62.42.6.12 1.22.25 1.86.39.62.14 1.23.31 1.83.51.6.2 1.13.47 1.59.81.48.34.86.77 1.14 1.29.3.52.45 1.16.45 1.92 0 .92-.21 1.7-.63 2.34-.42.64-.97 1.16-1.65 1.56-.66.4-1.4.69-2.22.87-.82.18-1.63.27-2.43.27-.98 0-1.89-.11-2.73-.33a6.69 6.69 0 0 1-2.16-.99c-.6-.46-1.08-1.02-1.44-1.68-.34-.68-.52-1.48-.54-2.4h3.42zM354.614 525.49h3.21v3h.06c.1-.42.29-.83.57-1.23.3-.4.65-.76 1.05-1.08.42-.34.88-.61 1.38-.81.5-.2 1.01-.3 1.53-.3.4 0 .67.01.81.03l.48.06v3.3c-.24-.04-.49-.07-.75-.09-.24-.04-.48-.06-.72-.06-.58 0-1.13.12-1.65.36-.5.22-.94.56-1.32 1.02-.38.44-.68.99-.9 1.65-.22.66-.33 1.42-.33 2.28V541h-3.42v-15.51zm-6.32 6.39c-.04-.54-.16-1.06-.36-1.56-.18-.5-.44-.93-.78-1.29a3.39 3.39 0 0 0-1.2-.9c-.46-.24-.98-.36-1.56-.36-.6 0-1.15.11-1.65.33-.48.2-.9.49-1.26.87-.34.36-.62.79-.84 1.29-.2.5-.31 1.04-.33 1.62h7.98zm-7.98 2.25c0 .6.08 1.18.24 1.74.18.56.44 1.05.78 1.47.34.42.77.76 1.29 1.02.52.24 1.14.36 1.86.36 1 0 1.8-.21 2.4-.63.62-.44 1.08-1.09 1.38-1.95h3.24c-.18.84-.49 1.59-.93 2.25a6.7 6.7 0 0 1-1.59 1.68c-.62.44-1.32.77-2.1.99-.76.24-1.56.36-2.4.36-1.22 0-2.3-.2-3.24-.6-.94-.4-1.74-.96-2.4-1.68-.64-.72-1.13-1.58-1.47-2.58-.32-1-.48-2.1-.48-3.3 0-1.1.17-2.14.51-3.12.36-1 .86-1.87 1.5-2.61.66-.76 1.45-1.36 2.37-1.8.92-.44 1.96-.66 3.12-.66 1.22 0 2.31.26 3.27.78.98.5 1.79 1.17 2.43 2.01.64.84 1.1 1.81 1.38 2.91.3 1.08.38 2.2.24 3.36h-11.4zm-20.056-8.64h3.72l3.93 11.91h.06l3.78-11.91h3.54l-5.55 15.51h-3.84l-5.64-15.51zm-9.444 15.93c-1.24 0-2.35-.2-3.33-.6-.96-.42-1.78-.99-2.46-1.71-.66-.72-1.17-1.58-1.53-2.58-.34-1-.51-2.1-.51-3.3 0-1.18.17-2.27.51-3.27.36-1 .87-1.86 1.53-2.58.68-.72 1.5-1.28 2.46-1.68.98-.42 2.09-.63 3.33-.63 1.24 0 2.34.21 3.3.63.98.4 1.8.96 2.46 1.68a6.97 6.97 0 0 1 1.53 2.58c.36 1 .54 2.09.54 3.27 0 1.2-.18 2.3-.54 3.3-.34 1-.85 1.86-1.53 2.58-.66.72-1.48 1.29-2.46 1.71-.96.4-2.06.6-3.3.6zm0-2.7c.76 0 1.42-.16 1.98-.48.56-.32 1.02-.74 1.38-1.26.36-.52.62-1.1.78-1.74a7.496 7.496 0 0 0 0-3.99c-.16-.66-.42-1.24-.78-1.74-.36-.52-.82-.94-1.38-1.26-.56-.32-1.22-.48-1.98-.48s-1.42.16-1.98.48c-.56.32-1.02.74-1.38 1.26-.36.5-.63 1.08-.81 1.74a8.378 8.378 0 0 0 0 3.99c.18.64.45 1.22.81 1.74.36.52.82.94 1.38 1.26.56.32 1.22.48 1.98.48zm-27.609-13.23h2.58v-4.65h3.42v4.65h3.09v2.55h-3.09v8.28c0 .36.01.67.03.93.04.26.11.48.21.66.12.18.29.32.51.42.22.08.52.12.9.12h.72c.24-.02.48-.06.72-.12v2.64c-.38.04-.75.08-1.11.12-.36.04-.73.06-1.11.06-.9 0-1.63-.08-2.19-.24-.54-.18-.97-.43-1.29-.75-.3-.34-.51-.76-.63-1.26-.1-.5-.16-1.07-.18-1.71v-9.15h-2.58v-2.55zm-9.287 0h3.21v3h.06c.1-.42.29-.83.57-1.23.3-.4.65-.76 1.05-1.08.42-.34.88-.61 1.38-.81.5-.2 1.01-.3 1.53-.3.4 0 .67.01.81.03l.48.06v3.3c-.24-.04-.49-.07-.75-.09-.24-.04-.48-.06-.72-.06-.58 0-1.13.12-1.65.36-.5.22-.94.56-1.32 1.02-.38.44-.68.99-.9 1.65-.22.66-.33 1.42-.33 2.28V541h-3.42v-15.51zm-3.98 12.06c0 .42.05.72.15.9.12.18.34.27.66.27h.36c.14 0 .3-.02.48-.06v2.37c-.12.04-.28.08-.48.12-.18.06-.37.11-.57.15a6.207 6.207 0 0 1-1.11.12c-.7 0-1.28-.14-1.74-.42-.46-.28-.76-.77-.9-1.47-.68.66-1.52 1.14-2.52 1.44-.98.3-1.93.45-2.85.45-.7 0-1.37-.1-2.01-.3a5.4 5.4 0 0 1-1.71-.81c-.48-.38-.87-.85-1.17-1.41-.28-.58-.42-1.25-.42-2.01 0-.96.17-1.74.51-2.34.36-.6.82-1.07 1.38-1.41.58-.34 1.22-.58 1.92-.72.72-.16 1.44-.28 2.16-.36.62-.12 1.21-.2 1.77-.24.56-.06 1.05-.15 1.47-.27.44-.12.78-.3 1.02-.54.26-.26.39-.64.39-1.14 0-.44-.11-.8-.33-1.08-.2-.28-.46-.49-.78-.63-.3-.16-.64-.26-1.02-.3-.38-.06-.74-.09-1.08-.09-.96 0-1.75.2-2.37.6-.62.4-.97 1.02-1.05 1.86h-3.42c.06-1 .3-1.83.72-2.49.42-.66.95-1.19 1.59-1.59.66-.4 1.4-.68 2.22-.84.82-.16 1.66-.24 2.52-.24.76 0 1.51.08 2.25.24.74.16 1.4.42 1.98.78.6.36 1.08.83 1.44 1.41.36.56.54 1.25.54 2.07v7.98zm-3.42-4.32c-.52.34-1.16.55-1.92.63-.76.06-1.52.16-2.28.3-.36.06-.71.15-1.05.27-.34.1-.64.25-.9.45-.26.18-.47.43-.63.75-.14.3-.21.67-.21 1.11 0 .38.11.7.33.96.22.26.48.47.78.63.32.14.66.24 1.02.3.38.06.72.09 1.02.09.38 0 .79-.05 1.23-.15.44-.1.85-.27 1.23-.51.4-.24.73-.54.99-.9.26-.38.39-.84.39-1.38v-2.55zm-21.42-7.74h2.58v-4.65h3.42v4.65h3.09v2.55h-3.09v8.28c0 .36.01.67.03.93.04.26.11.48.21.66.12.18.29.32.51.42.22.08.52.12.9.12h.72c.24-.02.48-.06.72-.12v2.64c-.38.04-.75.08-1.11.12-.36.04-.73.06-1.11.06-.9 0-1.63-.08-2.19-.24-.54-.18-.97-.43-1.29-.75-.3-.34-.51-.76-.63-1.26-.1-.5-.16-1.07-.18-1.71v-9.15h-2.58v-2.55zm-11.717 10.53c.1 1 .48 1.7 1.14 2.1.66.4 1.45.6 2.37.6.32 0 .68-.02 1.08-.06.42-.06.81-.16 1.17-.3.36-.14.65-.34.87-.6.24-.28.35-.64.33-1.08-.02-.44-.18-.8-.48-1.08s-.69-.5-1.17-.66c-.46-.18-.99-.33-1.59-.45-.6-.12-1.21-.25-1.83-.39-.64-.14-1.26-.31-1.86-.51a6.27 6.27 0 0 1-1.59-.81 3.85 3.85 0 0 1-1.11-1.29c-.28-.54-.42-1.2-.42-1.98 0-.84.2-1.54.6-2.1.42-.58.94-1.04 1.56-1.38.64-.36 1.34-.61 2.1-.75.78-.14 1.52-.21 2.22-.21.8 0 1.56.09 2.28.27.74.16 1.4.43 1.98.81.6.38 1.09.88 1.47 1.5.4.6.65 1.33.75 2.19h-3.57c-.16-.82-.54-1.37-1.14-1.65-.58-.28-1.25-.42-2.01-.42-.24 0-.53.02-.87.06-.32.04-.63.12-.93.24-.28.1-.52.26-.72.48-.2.2-.3.47-.3.81 0 .42.14.76.42 1.02.3.26.68.48 1.14.66.48.16 1.02.3 1.62.42.6.12 1.22.25 1.86.39.62.14 1.23.31 1.83.51.6.2 1.13.47 1.59.81.48.34.86.77 1.14 1.29.3.52.45 1.16.45 1.92 0 .92-.21 1.7-.63 2.34-.42.64-.97 1.16-1.65 1.56-.66.4-1.4.69-2.22.87-.82.18-1.63.27-2.43.27-.98 0-1.89-.11-2.73-.33a6.69 6.69 0 0 1-2.16-.99c-.6-.46-1.08-1.02-1.44-1.68-.34-.68-.52-1.48-.54-2.4h3.42zm15.506-198.53h3.24v2.28l.06.06c.52-.86 1.2-1.53 2.04-2.01.84-.5 1.77-.75 2.79-.75 1.7 0 3.04.44 4.02 1.32.98.88 1.47 2.2 1.47 3.96V353h-3.42v-9.75c-.04-1.22-.3-2.1-.78-2.64-.48-.56-1.23-.84-2.25-.84-.58 0-1.1.11-1.56.33-.46.2-.85.49-1.17.87-.32.36-.57.79-.75 1.29-.18.5-.27 1.03-.27 1.59V353h-3.42v-15.51zm-7.447-5.91h3.42v3.24h-3.42v-3.24zm0 5.91h3.42V353h-3.42v-15.51zm-4.07 12.06c0 .42.05.72.15.9.12.18.34.27.66.27h.36c.14 0 .3-.02.48-.06v2.37c-.12.04-.28.08-.48.12-.18.06-.37.11-.57.15a6.207 6.207 0 0 1-1.11.12c-.7 0-1.28-.14-1.74-.42-.46-.28-.76-.77-.9-1.47-.68.66-1.52 1.14-2.52 1.44-.98.3-1.93.45-2.85.45-.7 0-1.37-.1-2.01-.3a5.4 5.4 0 0 1-1.71-.81c-.48-.38-.87-.85-1.17-1.41-.28-.58-.42-1.25-.42-2.01 0-.96.17-1.74.51-2.34.36-.6.82-1.07 1.38-1.41.58-.34 1.22-.58 1.92-.72.72-.16 1.44-.28 2.16-.36.62-.12 1.21-.2 1.77-.24.56-.06 1.05-.15 1.47-.27.44-.12.78-.3 1.02-.54.26-.26.39-.64.39-1.14 0-.44-.11-.8-.33-1.08-.2-.28-.46-.49-.78-.63-.3-.16-.64-.26-1.02-.3-.38-.06-.74-.09-1.08-.09-.96 0-1.75.2-2.37.6-.62.4-.97 1.02-1.05 1.86h-3.42c.06-1 .3-1.83.72-2.49.42-.66.95-1.19 1.59-1.59.66-.4 1.4-.68 2.22-.84.82-.16 1.66-.24 2.52-.24.76 0 1.51.08 2.25.24.74.16 1.4.42 1.98.78.6.36 1.08.83 1.44 1.41.36.56.54 1.25.54 2.07v7.98zm-3.42-4.32c-.52.34-1.16.55-1.92.63-.76.06-1.52.16-2.28.3-.36.06-.71.15-1.05.27-.34.1-.64.25-.9.45-.26.18-.47.43-.63.75-.14.3-.21.67-.21 1.11 0 .38.11.7.33.96.22.26.48.47.78.63.32.14.66.24 1.02.3.38.06.72.09 1.02.09.38 0 .79-.05 1.23-.15.44-.1.85-.27 1.23-.51.4-.24.73-.54.99-.9.26-.38.39-.84.39-1.38v-2.55zm-21.42-7.74h2.58v-4.65h3.42v4.65h3.09v2.55h-3.09v8.28c0 .36.01.67.03.93.04.26.11.48.21.66.12.18.29.32.51.42.22.08.52.12.9.12h.72c.24-.02.48-.06.72-.12v2.64c-.38.04-.75.08-1.11.12-.36.04-.73.06-1.11.06-.9 0-1.63-.08-2.19-.24-.54-.18-.97-.43-1.29-.75-.3-.34-.51-.76-.63-1.26-.1-.5-.16-1.07-.18-1.71v-9.15h-2.58v-2.55zm-4.76 6.39c-.04-.54-.16-1.06-.36-1.56-.18-.5-.44-.93-.78-1.29a3.39 3.39 0 0 0-1.2-.9c-.46-.24-.98-.36-1.56-.36-.6 0-1.15.11-1.65.33-.48.2-.9.49-1.26.87-.34.36-.62.79-.84 1.29-.2.5-.31 1.04-.33 1.62h7.98zm-7.98 2.25c0 .6.08 1.18.24 1.74.18.56.44 1.05.78 1.47.34.42.77.76 1.29 1.02.52.24 1.14.36 1.86.36 1 0 1.8-.21 2.4-.63.62-.44 1.08-1.09 1.38-1.95h3.24c-.18.84-.49 1.59-.93 2.25a6.7 6.7 0 0 1-1.59 1.68c-.62.44-1.32.77-2.1.99-.76.24-1.56.36-2.4.36-1.22 0-2.3-.2-3.24-.6-.94-.4-1.74-.96-2.4-1.68-.64-.72-1.13-1.58-1.47-2.58-.32-1-.48-2.1-.48-3.3 0-1.1.17-2.14.51-3.12.36-1 .86-1.87 1.5-2.61.66-.76 1.45-1.36 2.37-1.8.92-.44 1.96-.66 3.12-.66 1.22 0 2.31.26 3.27.78.98.5 1.79 1.17 2.43 2.01.64.84 1.1 1.81 1.38 2.91.3 1.08.38 2.2.24 3.36h-11.4zm-12.989-8.64h3.21v3h.06c.1-.42.29-.83.57-1.23.3-.4.65-.76 1.05-1.08.42-.34.88-.61 1.38-.81.5-.2 1.01-.3 1.53-.3.4 0 .67.01.81.03l.48.06v3.3c-.24-.04-.49-.07-.75-.09-.24-.04-.48-.06-.72-.06-.58 0-1.13.12-1.65.36-.5.22-.94.56-1.32 1.02-.38.44-.68.99-.9 1.65-.22.66-.33 1.42-.33 2.28V353h-3.42v-15.51zM73.254 430.58h3.42v12.18l6.18-6.27h4.2l-5.94 5.7 6.51 9.81h-4.17l-4.74-7.53-2.04 1.98V452h-3.42v-21.42zm-6.59 11.1c-.14-.96-.53-1.68-1.17-2.16-.62-.5-1.41-.75-2.37-.75-.44 0-.91.08-1.41.24-.5.14-.96.42-1.38.84-.42.4-.77.97-1.05 1.71-.28.72-.42 1.67-.42 2.85 0 .64.07 1.28.21 1.92.16.64.4 1.21.72 1.71.34.5.77.91 1.29 1.23.52.3 1.15.45 1.89.45 1 0 1.82-.31 2.46-.93.66-.62 1.07-1.49 1.23-2.61h3.42c-.32 2.02-1.09 3.57-2.31 4.65-1.2 1.06-2.8 1.59-4.8 1.59-1.22 0-2.3-.2-3.24-.6a7.15 7.15 0 0 1-2.34-1.68 7.48 7.48 0 0 1-1.47-2.55c-.32-.98-.48-2.04-.48-3.18 0-1.16.16-2.25.48-3.27.32-1.02.8-1.9 1.44-2.64.64-.76 1.43-1.35 2.37-1.77.96-.44 2.08-.66 3.36-.66.9 0 1.75.12 2.55.36.82.22 1.54.56 2.16 1.02.64.46 1.16 1.04 1.56 1.74.4.7.64 1.53.72 2.49h-3.42zm-17.916-11.1h3.42v3.24h-3.42v-3.24zm0 5.91h3.42V452h-3.42v-15.51zM35.38 447.02c.1 1 .48 1.7 1.14 2.1.66.4 1.45.6 2.37.6.32 0 .68-.02 1.08-.06.42-.06.81-.16 1.17-.3.36-.14.65-.34.87-.6.24-.28.35-.64.33-1.08-.02-.44-.18-.8-.48-1.08s-.69-.5-1.17-.66c-.46-.18-.99-.33-1.59-.45-.6-.12-1.21-.25-1.83-.39-.64-.14-1.26-.31-1.86-.51a6.27 6.27 0 0 1-1.59-.81 3.85 3.85 0 0 1-1.11-1.29c-.28-.54-.42-1.2-.42-1.98 0-.84.2-1.54.6-2.1.42-.58.94-1.04 1.56-1.38.64-.36 1.34-.61 2.1-.75.78-.14 1.52-.21 2.22-.21.8 0 1.56.09 2.28.27.74.16 1.4.43 1.98.81.6.38 1.09.88 1.47 1.5.4.6.65 1.33.75 2.19h-3.57c-.16-.82-.54-1.37-1.14-1.65-.58-.28-1.25-.42-2.01-.42-.24 0-.53.02-.87.06-.32.04-.63.12-.93.24-.28.1-.52.26-.72.48-.2.2-.3.47-.3.81 0 .42.14.76.42 1.02.3.26.68.48 1.14.66.48.16 1.02.3 1.62.42.6.12 1.22.25 1.86.39.62.14 1.23.31 1.83.51.6.2 1.13.47 1.59.81.48.34.86.77 1.14 1.29.3.52.45 1.16.45 1.92 0 .92-.21 1.7-.63 2.34-.42.64-.97 1.16-1.65 1.56-.66.4-1.4.69-2.22.87-.82.18-1.63.27-2.43.27-.98 0-1.89-.11-2.73-.33a6.69 6.69 0 0 1-2.16-.99c-.6-.46-1.08-1.02-1.44-1.68-.34-.68-.52-1.48-.54-2.4h3.42zM463 392.58h3.42v7.95h.06c.42-.7 1.04-1.28 1.86-1.74.84-.48 1.77-.72 2.79-.72 1.7 0 3.04.44 4.02 1.32.98.88 1.47 2.2 1.47 3.96V414h-3.42v-9.75c-.04-1.22-.3-2.1-.78-2.64-.48-.56-1.23-.84-2.25-.84-.58 0-1.1.11-1.56.33-.46.2-.85.49-1.17.87-.32.36-.57.79-.75 1.29-.18.5-.27 1.03-.27 1.59V414H463v-21.42zm-6.5 11.1c-.14-.96-.53-1.68-1.17-2.16-.62-.5-1.41-.75-2.37-.75-.44 0-.91.08-1.41.24-.5.14-.96.42-1.38.84-.42.4-.77.97-1.05 1.71-.28.72-.42 1.67-.42 2.85 0 .64.07 1.28.21 1.92.16.64.4 1.21.72 1.71.34.5.77.91 1.29 1.23.52.3 1.15.45 1.89.45 1 0 1.82-.31 2.46-.93.66-.62 1.07-1.49 1.23-2.61h3.42c-.32 2.02-1.09 3.57-2.31 4.65-1.2 1.06-2.8 1.59-4.8 1.59-1.22 0-2.3-.2-3.24-.6a7.15 7.15 0 0 1-2.34-1.68 7.48 7.48 0 0 1-1.47-2.55c-.32-.98-.48-2.04-.48-3.18 0-1.16.16-2.25.48-3.27.32-1.02.8-1.9 1.44-2.64.64-.76 1.43-1.35 2.37-1.77.96-.44 2.08-.66 3.36-.66.9 0 1.75.12 2.55.36.82.22 1.54.56 2.16 1.02.64.46 1.16 1.04 1.56 1.74.4.7.64 1.53.72 2.49h-3.42zm-14.45 6.87c0 .42.05.72.15.9.12.18.34.27.66.27h.36c.14 0 .3-.02.48-.06v2.37c-.12.04-.28.08-.48.12-.18.06-.37.11-.57.15a6.207 6.207 0 0 1-1.11.12c-.7 0-1.28-.14-1.74-.42-.46-.28-.76-.77-.9-1.47-.68.66-1.52 1.14-2.52 1.44-.98.3-1.93.45-2.85.45-.7 0-1.37-.1-2.01-.3a5.4 5.4 0 0 1-1.71-.81c-.48-.38-.87-.85-1.17-1.41-.28-.58-.42-1.25-.42-2.01 0-.96.17-1.74.51-2.34.36-.6.82-1.07 1.38-1.41.58-.34 1.22-.58 1.92-.72.72-.16 1.44-.28 2.16-.36.62-.12 1.21-.2 1.77-.24.56-.06 1.05-.15 1.47-.27.44-.12.78-.3 1.02-.54.26-.26.39-.64.39-1.14 0-.44-.11-.8-.33-1.08-.2-.28-.46-.49-.78-.63-.3-.16-.64-.26-1.02-.3-.38-.06-.74-.09-1.08-.09-.96 0-1.75.2-2.37.6-.62.4-.97 1.02-1.05 1.86h-3.42c.06-1 .3-1.83.72-2.49.42-.66.95-1.19 1.59-1.59.66-.4 1.4-.68 2.22-.84.82-.16 1.66-.24 2.52-.24.76 0 1.51.08 2.25.24.74.16 1.4.42 1.98.78.6.36 1.08.83 1.44 1.41.36.56.54 1.25.54 2.07v7.98zm-3.42-4.32c-.52.34-1.16.55-1.92.63-.76.06-1.52.16-2.28.3-.36.06-.71.15-1.05.27-.34.1-.64.25-.9.45-.26.18-.47.43-.63.75-.14.3-.21.67-.21 1.11 0 .38.11.7.33.96.22.26.48.47.78.63.32.14.66.24 1.02.3.38.06.72.09 1.02.09.38 0 .79-.05 1.23-.15.44-.1.85-.27 1.23-.51.4-.24.73-.54.99-.9.26-.38.39-.84.39-1.38v-2.55zm-15.89-1.35c-.04-.54-.16-1.06-.36-1.56-.18-.5-.44-.93-.78-1.29a3.39 3.39 0 0 0-1.2-.9c-.46-.24-.98-.36-1.56-.36-.6 0-1.15.11-1.65.33-.48.2-.9.49-1.26.87-.34.36-.62.79-.84 1.29-.2.5-.31 1.04-.33 1.62h7.98zm-7.98 2.25c0 .6.08 1.18.24 1.74.18.56.44 1.05.78 1.47.34.42.77.76 1.29 1.02.52.24 1.14.36 1.86.36 1 0 1.8-.21 2.4-.63.62-.44 1.08-1.09 1.38-1.95h3.24c-.18.84-.49 1.59-.93 2.25a6.7 6.7 0 0 1-1.59 1.68c-.62.44-1.32.77-2.1.99-.76.24-1.56.36-2.4.36-1.22 0-2.3-.2-3.24-.6-.94-.4-1.74-.96-2.4-1.68-.64-.72-1.13-1.58-1.47-2.58-.32-1-.48-2.1-.48-3.3 0-1.1.17-2.14.51-3.12.36-1 .86-1.87 1.5-2.61.66-.76 1.45-1.36 2.37-1.8.92-.44 1.96-.66 3.12-.66 1.22 0 2.31.26 3.27.78.98.5 1.79 1.17 2.43 2.01.64.84 1.1 1.81 1.38 2.91.3 1.08.38 2.2.24 3.36h-11.4zm-14.52-8.64h2.58v-4.65h3.42v4.65h3.09v2.55h-3.09v8.28c0 .36.01.67.03.93.04.26.11.48.21.66.12.18.29.32.51.42.22.08.52.12.9.12h.72c.24-.02.48-.06.72-.12v2.64c-.38.04-.75.08-1.11.12-.36.04-.73.06-1.11.06-.9 0-1.63-.08-2.19-.24-.54-.18-.97-.43-1.29-.75-.3-.34-.51-.76-.63-1.26-.1-.5-.16-1.07-.18-1.71v-9.15h-2.58v-2.55zM140.032 210h-3.24v-2.1h-.06c-.46.9-1.13 1.55-2.01 1.95-.88.38-1.81.57-2.79.57-1.22 0-2.29-.21-3.21-.63-.9-.44-1.65-1.03-2.25-1.77-.6-.74-1.05-1.61-1.35-2.61-.3-1.02-.45-2.11-.45-3.27 0-1.4.19-2.61.57-3.63.38-1.02.88-1.86 1.5-2.52.64-.66 1.36-1.14 2.16-1.44a6.8 6.8 0 0 1 2.49-.48c.48 0 .97.05 1.47.15.5.08.98.22 1.44.42.46.2.88.46 1.26.78.4.3.73.66.99 1.08h.06v-7.92h3.42V210zm-11.94-7.59c0 .66.08 1.31.24 1.95.18.64.44 1.21.78 1.71.36.5.81.9 1.35 1.2.54.3 1.18.45 1.92.45.76 0 1.41-.16 1.95-.48.56-.32 1.01-.74 1.35-1.26.36-.52.62-1.1.78-1.74.18-.66.27-1.33.27-2.01 0-1.72-.39-3.06-1.17-4.02-.76-.96-1.8-1.44-3.12-1.44-.8 0-1.48.17-2.04.51-.54.32-.99.75-1.35 1.29-.34.52-.59 1.12-.75 1.8-.14.66-.21 1.34-.21 2.04zm-12.989-7.92h3.21v3h.06c.1-.42.29-.83.57-1.23.3-.4.65-.76 1.05-1.08.42-.34.88-.61 1.38-.81.5-.2 1.01-.3 1.53-.3.4 0 .67.01.81.03l.48.06v3.3c-.24-.04-.49-.07-.75-.09-.24-.04-.48-.06-.72-.06-.58 0-1.13.12-1.65.36-.5.22-.94.56-1.32 1.02-.38.44-.68.99-.9 1.65-.22.66-.33 1.42-.33 2.28V210h-3.42v-15.51zm-3.98 12.06c0 .42.05.72.15.9.12.18.34.27.66.27h.36c.14 0 .3-.02.48-.06v2.37c-.12.04-.28.08-.48.12-.18.06-.37.11-.57.15a6.207 6.207 0 0 1-1.11.12c-.7 0-1.28-.14-1.74-.42-.46-.28-.76-.77-.9-1.47-.68.66-1.52 1.14-2.52 1.44-.98.3-1.93.45-2.85.45-.7 0-1.37-.1-2.01-.3a5.4 5.4 0 0 1-1.71-.81c-.48-.38-.87-.85-1.17-1.41-.28-.58-.42-1.25-.42-2.01 0-.96.17-1.74.51-2.34.36-.6.82-1.07 1.38-1.41.58-.34 1.22-.58 1.92-.72.72-.16 1.44-.28 2.16-.36.62-.12 1.21-.2 1.77-.24.56-.06 1.05-.15 1.47-.27.44-.12.78-.3 1.02-.54.26-.26.39-.64.39-1.14 0-.44-.11-.8-.33-1.08-.2-.28-.46-.49-.78-.63-.3-.16-.64-.26-1.02-.3-.38-.06-.74-.09-1.08-.09-.96 0-1.75.2-2.37.6-.62.4-.97 1.02-1.05 1.86h-3.42c.06-1 .3-1.83.72-2.49.42-.66.95-1.19 1.59-1.59.66-.4 1.4-.68 2.22-.84.82-.16 1.66-.24 2.52-.24.76 0 1.51.08 2.25.24.74.16 1.4.42 1.98.78.6.36 1.08.83 1.44 1.41.36.56.54 1.25.54 2.07v7.98zm-3.42-4.32c-.52.34-1.16.55-1.92.63-.76.06-1.52.16-2.28.3-.36.06-.71.15-1.05.27-.34.1-.64.25-.9.45-.26.18-.47.43-.63.75-.14.3-.21.67-.21 1.11 0 .38.11.7.33.96.22.26.48.47.78.63.32.14.66.24 1.02.3.38.06.72.09 1.02.09.38 0 .79-.05 1.23-.15.44-.1.85-.27 1.23-.51.4-.24.73-.54.99-.9.26-.38.39-.84.39-1.38v-2.55zm-20.543 8.19c-1.24 0-2.35-.2-3.33-.6-.96-.42-1.78-.99-2.46-1.71-.66-.72-1.17-1.58-1.53-2.58-.34-1-.51-2.1-.51-3.3 0-1.18.17-2.27.51-3.27.36-1 .87-1.86 1.53-2.58.68-.72 1.5-1.28 2.46-1.68.98-.42 2.09-.63 3.33-.63 1.24 0 2.34.21 3.3.63.98.4 1.8.96 2.46 1.68a6.97 6.97 0 0 1 1.53 2.58c.36 1 .54 2.09.54 3.27 0 1.2-.18 2.3-.54 3.3-.34 1-.85 1.86-1.53 2.58-.66.72-1.48 1.29-2.46 1.71-.96.4-2.06.6-3.3.6zm0-2.7c.76 0 1.42-.16 1.98-.48.56-.32 1.02-.74 1.38-1.26.36-.52.62-1.1.78-1.74a7.496 7.496 0 0 0 0-3.99c-.16-.66-.42-1.24-.78-1.74-.36-.52-.82-.94-1.38-1.26-.56-.32-1.22-.48-1.98-.48s-1.42.16-1.98.48c-.56.32-1.02.74-1.38 1.26-.36.5-.63 1.08-.81 1.74a8.378 8.378 0 0 0 0 3.99c.18.64.45 1.22.81 1.74.36.52.82.94 1.38 1.26.56.32 1.22.48 1.98.48zM61.5 188.58h3.42v7.92h.06c.24-.38.53-.72.87-1.02.34-.3.71-.55 1.11-.75.42-.22.85-.38 1.29-.48.46-.12.91-.18 1.35-.18 1.22 0 2.28.22 3.18.66.92.42 1.68 1.01 2.28 1.77.6.74 1.05 1.61 1.35 2.61.3 1 .45 2.07.45 3.21 0 1.04-.14 2.05-.42 3.03-.26.98-.67 1.85-1.23 2.61-.54.74-1.23 1.34-2.07 1.8-.84.44-1.83.66-2.97.66-.52 0-1.05-.04-1.59-.12a5.528 5.528 0 0 1-2.82-1.17c-.38-.32-.7-.74-.96-1.26h-.06V210H61.5v-21.42zm11.94 13.68c0-.7-.09-1.38-.27-2.04-.18-.66-.45-1.24-.81-1.74a3.97 3.97 0 0 0-1.35-1.23c-.54-.32-1.16-.48-1.86-.48-1.44 0-2.53.5-3.27 1.5-.72 1-1.08 2.33-1.08 3.99 0 .78.09 1.51.27 2.19.2.66.49 1.23.87 1.71s.83.86 1.35 1.14c.54.28 1.16.42 1.86.42.78 0 1.44-.16 1.98-.48.54-.32.98-.73 1.32-1.23.36-.52.61-1.1.75-1.74.16-.66.24-1.33.24-2.01zm-29.557-7.77h3.24v2.28l.06.06c.52-.86 1.2-1.53 2.04-2.01.84-.5 1.77-.75 2.79-.75 1.7 0 3.04.44 4.02 1.32.98.88 1.47 2.2 1.47 3.96V210h-3.42v-9.75c-.04-1.22-.3-2.1-.78-2.64-.48-.56-1.23-.84-2.25-.84-.58 0-1.1.11-1.56.33-.46.2-.85.49-1.17.87-.32.36-.57.79-.75 1.29-.18.5-.27 1.03-.27 1.59V210h-3.42v-15.51zM32.91 210.42c-1.24 0-2.35-.2-3.33-.6-.96-.42-1.78-.99-2.46-1.71-.66-.72-1.17-1.58-1.53-2.58-.34-1-.51-2.1-.51-3.3 0-1.18.17-2.27.51-3.27.36-1 .87-1.86 1.53-2.58.68-.72 1.5-1.28 2.46-1.68.98-.42 2.09-.63 3.33-.63 1.24 0 2.34.21 3.3.63.98.4 1.8.96 2.46 1.68a6.97 6.97 0 0 1 1.53 2.58c.36 1 .54 2.09.54 3.27 0 1.2-.18 2.3-.54 3.3-.34 1-.85 1.86-1.53 2.58-.66.72-1.48 1.29-2.46 1.71-.96.4-2.06.6-3.3.6zm0-2.7c.76 0 1.42-.16 1.98-.48.56-.32 1.02-.74 1.38-1.26.36-.52.62-1.1.78-1.74a7.496 7.496 0 0 0 0-3.99c-.16-.66-.42-1.24-.78-1.74-.36-.52-.82-.94-1.38-1.26-.56-.32-1.22-.48-1.98-.48s-1.42.16-1.98.48c-.56.32-1.02.74-1.38 1.26-.36.5-.63 1.08-.81 1.74a8.378 8.378 0 0 0 0 3.99c.18.64.45 1.22.81 1.74.36.52.82.94 1.38 1.26.56.32 1.22.48 1.98.48z"/><path fill="#fff" fill-rule="evenodd" d="M256.985 48.803a.999.999 0 0 1 .65-1.256l8.577-2.727a1 1 0 0 1 .606 1.906l-6.296 2.002c56.038 29.878 83.223 79.535 89.871 100.976l-1.91.592c-6.518-21.02-33.389-70.184-88.854-99.778l1.989 6.256a1 1 0 0 1-1.906.606l-2.727-8.577zM118.653 8.12a.999.999 0 0 1 .165-1.405l7.064-5.577a1 1 0 1 1 1.239 1.57l-5.176 4.087c46.67 5.751 87.253 18.351 100.493 24.806l-.876 1.798c-12.978-6.327-53.317-18.88-99.838-24.616l4.075 5.161a1 1 0 0 1-1.57 1.24l-5.576-7.064zm-1.588 51.352c-16.012-13.175-20.597-25.781-19.62-33.596l1.985.248c-.857 6.852 3.158 18.846 18.905 31.804 15.444 12.708 42.065 26.237 85.968 36.55l-3.495-5.57a1 1 0 0 1 1.694-1.064l4.783 7.625a1 1 0 0 1-.316 1.378l-7.624 4.782a1 1 0 1 1-1.063-1.694l5.587-3.504c-44.097-10.357-71.042-23.988-86.804-36.959z" clip-rule="evenodd"/><path fill="#fff" fill-rule="evenodd" d="M526.005 107.177a1 1 0 0 1 .255 1.391l-5.111 7.408a1 1 0 0 1-1.646-1.136l3.744-5.427c-110.673 19.79-227.595 5.011-272.526-4.937l.432-1.952c44.759 9.909 161.391 24.649 271.722 4.924l-5.414-3.736a1 1 0 0 1 1.136-1.646l7.408 5.111z" clip-rule="evenodd"/><path fill="#fff" fill-rule="evenodd" d="M494.607 69.653c13.203 1.78 24.974 8.421 34.002 16.606l-1.343 1.482c-8.805-7.982-20.215-14.392-32.926-16.106-12.683-1.71-26.742 1.242-40.924 12.115-28.242 21.653-56.994 74.75-75.798 184.895l5.362-3.817a1 1 0 1 1 1.16 1.629l-7.332 5.22a.999.999 0 0 1-1.394-.234l-5.221-7.331a1 1 0 0 1 1.629-1.16l3.823 5.368c18.817-110.231 47.669-164.01 76.555-186.157 14.587-11.184 29.176-14.294 42.407-12.51zM51.84 165.802a1 1 0 0 1-.205-1.399l5.37-7.222a1 1 0 1 1 1.605 1.193l-3.935 5.292c172.997-24.524 278.708 61.699 310.097 109.283l-1.669 1.101c-30.99-46.98-135.956-132.805-308.124-108.407l5.278 3.924a1 1 0 1 1-1.194 1.605l-7.222-5.37z" clip-rule="evenodd"/><path fill="#fff" fill-rule="evenodd" d="M186.344 43.076c6.71-4.446 15.927-4.83 24.789-3.056l-.392 1.96c-8.637-1.727-17.221-1.26-23.292 2.763-5.984 3.965-9.806 11.582-8.541 24.837 1.268 13.288 7.65 32.079 21.909 58.042.536.976 1.083 1.962 1.642 2.959 38.769 2.803 83.119 10.757 132.003 26.717l-2.962-5.889a.999.999 0 1 1 1.786-.898l4.045 8.04a1 1 0 0 1-.444 1.342l-8.04 4.045a1 1 0 0 1-.899-1.787l5.877-2.956c-48.177-15.729-91.907-23.647-130.186-26.522 14.054 24.735 34.892 55.577 64.603 93.806l.807-6.534a1 1 0 0 1 1.985.246l-1.104 8.932a1 1 0 0 1-1.115.87l-8.932-1.105a1 1 0 0 1 .245-1.985l6.539.809c-30.215-38.876-51.301-70.169-65.424-95.213C122.734 127 67.52 142.726 44.418 155.377l-.961-1.754c23.355-12.79 78.469-28.467 156.618-23.209-.341-.613-.678-1.223-1.011-1.829-14.31-26.056-20.841-45.128-22.147-58.815-1.31-13.72 2.63-22.19 9.427-26.694zm136.572 252.906c-7.783-14.066-18.175-27.728-28.219-38.81l1.481-1.344c10.123 11.168 20.614 24.955 28.488 39.186 7.861 14.209 13.175 28.97 12.796 42.052-.19 6.559-1.811 12.713-5.273 18.15-3.462 5.438-8.73 10.103-16.126 13.739-14.414 7.087-36.968 10.296-70.311 7.734l4.259 5.039a1 1 0 1 1-1.527 1.291l-5.81-6.873a1 1 0 0 1 .118-1.41l6.873-5.81a1 1 0 0 1 1.291 1.527l-5.02 4.244c33.191 2.548 55.31-.685 69.245-7.537 7.118-3.499 12.084-7.935 15.321-13.018 3.238-5.085 4.78-10.874 4.961-17.133.363-12.555-4.753-26.939-12.547-41.027zM24.752 261.918a1 1 0 0 1-.232 1.395l-7.318 5.238a1 1 0 1 1-1.164-1.626l5.321-3.809c-3.961-.554-7.267-.747-9.966-.623-3.245.148-5.53.749-7.02 1.649-1.446.872-2.17 2.032-2.336 3.472-.173 1.502.25 3.409 1.357 5.711 2.213 4.601 6.958 10.381 13.788 16.846 6.81 6.448 15.625 13.515 25.892 20.697 20.536 14.366 46.83 29.157 74.405 40.354C145.064 362.423 173.867 370 199.439 370v2c-25.929 0-55.001-7.673-82.713-18.925-27.721-11.256-54.146-26.121-74.798-40.568-10.326-7.224-19.222-14.352-26.121-20.883-6.88-6.514-11.841-12.496-14.215-17.433-1.186-2.468-1.776-4.774-1.541-6.806.241-2.092 1.345-3.783 3.288-4.955 1.896-1.144 4.56-1.78 7.962-1.935 2.88-.132 6.35.078 10.442.656l-3.856-5.387a1 1 0 0 1 1.626-1.165l5.239 7.319z" clip-rule="evenodd"/><path fill="#fff" fill-rule="evenodd" d="M139.212 392.039c-29.636-43.418-61.89-84.416-82.538-108.894l1.529-1.29c20.685 24.522 52.981 65.574 82.661 109.056 29.006 42.494 55.586 87.413 66.33 121.513l3.144-5.817a1 1 0 1 1 1.76.951l-4.28 7.918a1.001 1.001 0 0 1-1.355.404l-7.918-4.28a1 1 0 0 1 .951-1.759l5.77 3.118c-10.658-33.778-37.068-78.455-66.054-120.92z" clip-rule="evenodd"/><path fill="#fff" fill-rule="evenodd" d="M410.987 374.663a1 1 0 0 1 .29 1.384l-4.924 7.534a1 1 0 1 1-1.674-1.095l3.602-5.512c-64.347 13.504-118.099 25.786-160.498 37.6-42.944 11.966-74.146 23.426-92.914 35.137-9.387 5.858-15.553 11.712-18.57 17.622-2.982 5.841-2.933 11.821.306 18.144 3.269 6.383 9.801 13.131 19.836 20.322 10.02 7.181 23.456 14.748 40.427 22.797l-.857 1.808c-17.028-8.077-30.581-15.703-40.735-22.979-10.141-7.267-16.971-14.24-20.452-21.036-3.511-6.857-3.599-13.515-.306-19.966 3.258-6.382 9.779-12.473 19.292-18.409 19.032-11.876 50.48-23.398 93.436-35.366 42.464-11.832 96.268-24.125 160.626-37.631l-5.513-3.604a1 1 0 0 1 1.094-1.674l7.534 4.924zM169.029 229.537c3.951.657 7.794 2.262 10.916 4.101l-1.015 1.724c-2.96-1.745-6.572-3.244-10.23-3.852-3.657-.609-7.29-.316-10.384 1.424-6.13 3.448-10.778 13.011-8.384 34.957.971 8.904 2.492 19.041 4.116 29.865.88 5.87 1.791 11.941 2.661 18.128 2.47 17.565 4.603 36.009 4.729 53.171.125 17.148-1.751 33.113-7.369 45.673-5.345 11.952-14.084 20.821-27.62 24.657l5.658 3.521a1 1 0 1 1-1.057 1.698l-7.641-4.755a1 1 0 0 1-.32-1.378l4.755-7.641a1.001 1.001 0 0 1 1.698 1.057l-3.432 5.515c12.777-3.686 21.024-12.067 26.134-23.49 5.445-12.174 7.318-27.803 7.194-44.842-.125-17.025-2.242-35.363-4.709-52.907-.864-6.14-1.771-12.189-2.65-18.05-1.628-10.855-3.16-21.064-4.135-30.005-2.406-22.053 2.112-32.823 9.391-36.917 3.61-2.031 7.742-2.311 11.694-1.654zm36.41 28.388a1 1 0 0 1 1.073-.922l8.974.679a.999.999 0 1 1-.15 1.994l-6.531-.494c20.459 22.809 50.894 38.589 84.595 48.682 34.585 10.357 72.518 14.698 106.419 14.536 33.923-.162 63.704-4.833 82.014-12.421 9.192-3.809 15.282-8.267 17.707-13.063 1.194-2.361 1.509-4.819.86-7.393-.654-2.597-2.309-5.382-5.179-8.325l1.431-1.396c3.03 3.107 4.921 6.19 5.688 9.232.772 3.064.386 6.014-1.015 8.784-2.764 5.466-9.434 10.159-18.726 14.009-18.655 7.731-48.731 12.41-82.77 12.573-34.062.163-72.197-4.196-107.003-14.62-33.926-10.16-64.775-26.108-85.572-49.332l-.499 6.602a1 1 0 0 1-1.994-.151l.678-8.974z" clip-rule="evenodd"/><path fill="#fff" fill-rule="evenodd" d="m469.422 252.153-6.526.402a1 1 0 0 0 .123 1.996l8.983-.553a1 1 0 0 0 .937-1.06l-.553-8.983a1 1 0 0 0-1.996.123l.407 6.618c-3.204-2.681-6.393-4.94-9.395-6.518-3.535-1.858-6.959-2.851-9.884-2.295-3.043.578-5.284 2.773-6.497 6.64-1.197 3.813-1.441 9.354-.536 16.945 1.812 15.203 8.288 39.033 21.686 74.668 13.404 35.653 33.758 83.177 63.365 145.791l1.808-.855c-29.594-62.586-49.923-110.057-63.301-145.64-13.384-35.6-19.789-59.245-21.572-74.201-.893-7.488-.613-12.697.458-16.109 1.054-3.36 2.825-4.868 4.962-5.274 2.255-.429 5.179.312 8.581 2.101 2.812 1.478 5.851 3.618 8.95 6.204zM351.009 426.684c-37.519-2.922-56.603 9.533-62.677 21.761l-1.791-.89c6.593-13.272 26.709-25.818 64.623-22.865 37.613 2.93 92.963 21.1 170.752 69.19l-1.497-6.418a1 1 0 0 1 1.948-.454l2.043 8.765a1 1 0 0 1-.746 1.201l-8.765 2.043a.999.999 0 1 1-.454-1.947l6.409-1.495c-77.648-48.002-132.68-65.996-169.845-68.891z" clip-rule="evenodd"/><path fill="#fff" fill-rule="evenodd" d="M504.495 206.417c.723.455 1.38.869 1.968 1.232l-1.051 1.702c-.601-.371-1.269-.792-1.999-1.251-4.472-2.815-11.28-7.1-19.394-10.587-9.44-4.059-20.535-6.984-31.617-5.275-11.032 1.702-22.186 8.019-31.759 22.714-9.594 14.727-17.595 37.866-22.211 73.154-7.005 85.036-23.023 130.021-41.264 153.753-9.139 11.89-18.834 18.444-28.211 22.013-8.405 3.199-16.506 3.981-23.626 4.108l4.678 4.677a1 1 0 0 1-1.415 1.414l-6.364-6.364a1 1 0 0 1 0-1.414l6.364-6.364a1 1 0 0 1 1.415 1.414l-4.636 4.636c6.983-.129 14.797-.902 22.873-3.976 9.014-3.431 18.412-9.752 27.336-21.362 17.882-23.265 33.863-67.775 40.859-152.723l.002-.024.003-.024c4.635-35.448 12.695-58.927 22.521-74.01 9.848-15.117 21.475-21.8 33.131-23.598 11.606-1.791 23.105 1.284 32.711 5.413 8.27 3.555 15.22 7.931 19.686 10.742zm37.971 20.817a1 1 0 0 1 .738-1.206l8.75-2.106a1.001 1.001 0 0 1 .468 1.945l-6.427 1.546c21.891 13.861 31.902 27.984 33.183 41.88 1.318 14.305-6.655 27.968-19.496 40.352-25.686 24.772-71.567 45.128-105.935 56.306l-.618-1.902c34.299-11.156 79.818-31.399 105.165-55.844 12.676-12.225 20.128-25.324 18.892-38.729-1.197-12.985-10.582-26.634-32.204-40.337l1.534 6.377a1 1 0 1 1-1.944.468l-2.106-8.75z" clip-rule="evenodd"/><path fill="#fff" d="M110.938 10a8 8 0 1 1-16 0 8 8 0 0 1 16 0zm134 32a8 8 0 1 1-16 0 8 8 0 0 1 16 0zm-8 58a8 8 0 1 1-16 0 8 8 0 0 1 16 0zm129 65a8 8 0 1 1-16 0 8 8 0 0 1 16 0zm184-65a8 8 0 1 1-16 0 8 8 0 0 1 16 0zm-19 116a8 8 0 1 1-16 0 8 8 0 0 1 16 0zm-38 50a8 8 0 1 1-16 0 8 8 0 0 1 16 0zm-52 104a8 8 0 1 1-16 0 8 8 0 0 1 16 0zm-59-81a8 8 0 1 1-16 0 8 8 0 0 1 16 0zm-86 175a8 8 0 1 1-16 0 8 8 0 0 1 16 0zm-181-22a8 8 0 1 1-16 0 8 8 0 0 1 16 0zm115-69a8 8 0 1 1-16 0 8 8 0 0 1 16 0zm-11 159a8 8 0 1 1-16 0 8 8 0 0 1 16 0zm-169-263a8 8 0 1 1-16 0 8 8 0 0 1 16 0zm152-23a8 8 0 1 1-16 0 8 8 0 0 1 16 0zM288 245a8 8 0 1 1-16 0 8 8 0 0 1 16 0zM40.938 165a8 8 0 1 1-16 0 8 8 0 0 1 16 0zm504 335a8 8 0 1 1-16 0 8 8 0 0 1 16 0z"/></svg>